<svg width="623" height="421" viewBox="0 0 623 421" fill="none" xmlns="http://www.w3.org/2000/svg">
<path d="M137.964 192.056C137.964 102.139 210.856 28.4654 300.774 28.4654V28.4654C390.691 28.4654 463.584 101.358 463.584 191.275V319.088C463.584 340.15 446.51 357.224 425.448 357.224H302.343C211.559 357.224 137.964 282.84 137.964 192.056V192.056Z" fill="url(#paint0_linear_13_28)" fill-opacity="0.85"/>
<path d="M137.964 192.056C137.964 102.139 210.856 28.4654 300.774 28.4654V28.4654C390.691 28.4654 463.584 101.358 463.584 191.275V319.088C463.584 340.15 446.51 357.224 425.448 357.224H302.343C211.559 357.224 137.964 282.84 137.964 192.056V192.056Z" fill="url(#paint1_linear_13_28)" fill-opacity="0.85"/>
<path d="M144.542 192.329C144.542 105.893 214.612 35.0406 301.048 35.0406V35.0406C387.484 35.0406 457.554 105.111 457.554 191.546V313.048C457.554 334.117 440.474 351.196 419.405 351.196H302.62C215.316 351.196 144.542 279.633 144.542 192.329V192.329Z" fill="url(#paint2_linear_13_28)" fill-opacity="0.86"/>
<path d="M144.542 192.329C144.542 105.893 214.612 35.0406 301.048 35.0406V35.0406C387.484 35.0406 457.554 105.111 457.554 191.546V313.048C457.554 334.117 440.474 351.196 419.405 351.196H302.62C215.316 351.196 144.542 279.633 144.542 192.329V192.329Z" fill="url(#paint3_linear_13_28)" fill-opacity="0.86"/>
<path d="M151.668 191.505C151.668 109.459 218.18 42.1637 300.226 42.1637V42.1637C382.271 42.1637 448.783 108.675 448.783 190.721V305.051C448.783 325.694 432.048 342.429 411.404 342.429H301.801C218.885 342.429 151.668 274.421 151.668 191.505V191.505Z" fill="url(#paint4_linear_13_28)" fill-opacity="0.9"/>
<path d="M151.668 191.505C151.668 109.459 218.18 42.1637 300.226 42.1637V42.1637C382.271 42.1637 448.783 108.675 448.783 190.721V305.051C448.783 325.694 432.048 342.429 411.404 342.429H301.801C218.885 342.429 151.668 274.421 151.668 191.505V191.505Z" fill="url(#paint5_linear_13_28)" fill-opacity="0.9"/>
<ellipse cx="300.5" cy="191.201" rx="137.868" ry="136.435" fill="url(#paint6_linear_13_28)" fill-opacity="0.65"/>
<ellipse cx="300.5" cy="191.201" rx="137.868" ry="136.435" fill="url(#paint7_linear_13_28)" fill-opacity="0.65"/>
<path d="M302.238 197.277L301.117 197.932C293.52 202.368 283.763 199.807 279.324 192.212C271.6 178.997 276.054 162.026 289.272 154.307L294.091 151.493C300.667 147.653 309.113 149.87 312.955 156.444C321.276 170.681 316.478 188.962 302.238 197.277Z" fill="url(#paint8_linear_13_28)" stroke="#602144" stroke-width="4"/>
<path d="M302.238 197.277L301.117 197.932C293.52 202.368 283.763 199.807 279.324 192.212C271.6 178.997 276.054 162.026 289.272 154.307L294.091 151.493C300.667 147.653 309.113 149.87 312.955 156.444C321.276 170.681 316.478 188.962 302.238 197.277Z" fill="url(#paint9_linear_13_28)" stroke="#602144" stroke-width="4"/>
<path d="M361.48 153.556L361.907 154.766C364.838 163.063 360.487 172.164 352.189 175.093C337.749 180.188 321.91 172.615 316.81 158.177L314.961 152.942C312.424 145.76 316.194 137.881 323.378 135.345C338.926 129.859 355.989 138.011 361.48 153.556Z" fill="url(#paint10_linear_13_28)" stroke="#276700" stroke-width="4"/>
<path d="M361.48 153.556L361.907 154.766C364.838 163.063 360.487 172.164 352.189 175.093C337.749 180.188 321.91 172.615 316.81 158.177L314.961 152.942C312.424 145.76 316.194 137.881 323.378 135.345C338.926 129.859 355.989 138.011 361.48 153.556Z" fill="url(#paint11_linear_13_28)" stroke="#276700" stroke-width="4"/>
<path d="M378.882 174.951L381.179 182.588C383.608 190.665 379.028 199.18 370.95 201.607L353.321 206.903C346.229 209.034 338.751 205.012 336.618 197.921L335.599 194.531C331.354 180.413 339.358 165.53 353.477 161.288C364.265 158.047 375.639 164.164 378.882 174.951Z" fill="url(#paint12_linear_13_28)" stroke="#610054" stroke-width="4"/>
<path d="M378.882 174.951L381.179 182.588C383.608 190.665 379.028 199.18 370.95 201.607L353.321 206.903C346.229 209.034 338.751 205.012 336.618 197.921L335.599 194.531C331.354 180.413 339.358 165.53 353.477 161.288C364.265 158.047 375.639 164.164 378.882 174.951Z" fill="url(#paint13_linear_13_28)" stroke="#610054" stroke-width="4"/>
<path d="M373.237 181.137C375.251 182.582 375.712 185.385 374.266 187.398L370.974 191.983C368.253 195.772 362.975 196.639 359.184 193.92V193.92C356.898 192.279 356.374 189.096 358.016 186.81L360.598 183.214C363.515 179.152 369.174 178.222 373.237 181.137V181.137Z" fill="#FF66C8"/>
<path d="M373.237 181.137C375.251 182.582 375.712 185.385 374.266 187.398L370.974 191.983C368.253 195.772 362.975 196.639 359.184 193.92V193.92C356.898 192.279 356.374 189.096 358.016 186.81L360.598 183.214C363.515 179.152 369.174 178.222 373.237 181.137V181.137Z" fill="#FF66C8"/>
<path d="M347.621 140.458C348.803 139.507 350.533 139.694 351.485 140.876L355.184 145.468C356.975 147.693 356.624 150.947 354.399 152.738V152.738C353.056 153.818 351.092 153.606 350.011 152.264L346.779 148.251C344.859 145.867 345.235 142.378 347.621 140.458V140.458Z" fill="#CDFFA6"/>
<path d="M347.621 140.458C348.803 139.507 350.533 139.694 351.485 140.876L355.184 145.468C356.975 147.693 356.624 150.947 354.399 152.738V152.738C353.056 153.818 351.092 153.606 350.011 152.264L346.779 148.251C344.859 145.867 345.235 142.378 347.621 140.458V140.458Z" fill="#CDFFA6"/>
<path d="M365.449 245.43L364.19 245.78C355.713 248.129 346.935 243.163 344.583 234.687C340.49 219.938 349.13 204.667 363.879 200.578L369.264 199.086C376.602 197.052 384.2 201.35 386.236 208.687C390.645 224.575 381.338 241.026 365.449 245.43Z" fill="url(#paint14_linear_13_28)" stroke="#243D79" stroke-width="4"/>
<path d="M365.449 245.43L364.19 245.78C355.713 248.129 346.935 243.163 344.583 234.687C340.49 219.938 349.13 204.667 363.879 200.578L369.264 199.086C376.602 197.052 384.2 201.35 386.236 208.687C390.645 224.575 381.338 241.026 365.449 245.43Z" fill="url(#paint15_linear_13_28)" stroke="#243D79" stroke-width="4"/>
<path d="M208.185 266.732L206.836 266.018C197.54 261.099 193.994 249.577 198.916 240.283C207.415 224.236 227.315 218.112 243.365 226.604L249.155 229.668C257.225 233.937 260.303 243.939 256.03 252.007C246.883 269.28 225.462 275.873 208.185 266.732Z" fill="#FF8B37" stroke="#623514" stroke-width="4"/>
<path d="M208.185 266.732L206.836 266.018C197.54 261.099 193.994 249.577 198.916 240.283C207.415 224.236 227.315 218.112 243.365 226.604L249.155 229.668C257.225 233.937 260.303 243.939 256.03 252.007C246.883 269.28 225.462 275.873 208.185 266.732Z" fill="#FF8B37" stroke="#623514" stroke-width="4"/>
<path d="M387.173 257.951L387.1 259.211C386.055 277.156 370.661 290.857 352.717 289.813L352.028 289.773C342.019 289.191 334.378 280.606 334.96 270.597C335.968 253.283 350.821 240.063 368.135 241.07L372.368 241.316C381.05 241.821 387.678 249.269 387.173 257.951Z" fill="#C22C00" stroke="#6C2713" stroke-width="4"/>
<path d="M387.173 257.951L387.1 259.211C386.055 277.156 370.661 290.857 352.717 289.813L352.028 289.773C342.019 289.191 334.378 280.606 334.96 270.597C335.968 253.283 350.821 240.063 368.135 241.07L372.368 241.316C381.05 241.821 387.678 249.269 387.173 257.951Z" fill="#C22C00" stroke="#6C2713" stroke-width="4"/>
<path d="M384.953 218.192C386.004 226.313 380.272 233.748 372.151 234.798V234.798C371.49 234.883 370.884 234.416 370.798 233.754L369.523 223.898C369.095 220.593 371.428 217.567 374.733 217.14L383.367 216.024C384.076 215.932 384.726 216.432 384.817 217.141L384.953 218.192Z" fill="#68BEFF"/>
<path d="M384.953 218.192C386.004 226.313 380.272 233.748 372.151 234.798V234.798C371.49 234.883 370.884 234.416 370.798 233.754L369.523 223.898C369.095 220.593 371.428 217.567 374.733 217.14L383.367 216.024C384.076 215.932 384.726 216.432 384.817 217.141L384.953 218.192Z" fill="#68BEFF"/>
<path d="M369.074 237.499C377.605 235.7 385.981 241.157 387.781 249.688V249.688C391.415 266.901 380.399 283.8 363.185 287.43V287.43C352.796 289.621 342.593 282.976 340.4 272.587L339.661 269.087C336.828 255.665 345.412 242.489 358.835 239.659L369.074 237.499Z" fill="#F24E1E"/>
<path d="M369.074 237.499C377.605 235.7 385.981 241.157 387.781 249.688V249.688C391.415 266.901 380.399 283.8 363.185 287.43V287.43C352.796 289.621 342.593 282.976 340.4 272.587L339.661 269.087C336.828 255.665 345.412 242.489 358.835 239.659L369.074 237.499Z" fill="#F24E1E"/>
<path d="M257.595 233.51L256.307 233.278C247.649 231.721 241.895 223.441 243.453 214.783C246.166 199.72 260.576 189.705 275.64 192.415L281.141 193.405C288.635 194.753 293.616 201.92 292.267 209.414C289.345 225.641 273.822 236.429 257.595 233.51Z" fill="url(#paint16_linear_13_28)" stroke="#00717E" stroke-width="4"/>
<path d="M257.595 233.51L256.307 233.278C247.649 231.721 241.895 223.441 243.453 214.783C246.166 199.72 260.576 189.705 275.64 192.415L281.141 193.405C288.635 194.753 293.616 201.92 292.267 209.414C289.345 225.641 273.822 236.429 257.595 233.51Z" fill="url(#paint17_linear_13_28)" stroke="#00717E" stroke-width="4"/>
<path d="M252.577 226.855C260.284 230.933 263.224 240.485 259.143 248.191V248.191C250.909 263.739 231.627 269.673 216.076 261.445L214.927 260.837C206.175 256.206 202.836 245.358 207.47 236.608V236.608C215.151 222.105 233.137 216.569 247.644 224.245L252.577 226.855Z" fill="#FF9B53"/>
<path d="M252.577 226.855C260.284 230.933 263.224 240.485 259.143 248.191V248.191C250.909 263.739 231.627 269.673 216.076 261.445L214.927 260.837C206.175 256.206 202.836 245.358 207.47 236.608V236.608C215.151 222.105 233.137 216.569 247.644 224.245L252.577 226.855Z" fill="#FF9B53"/>
<path d="M244.257 239.452C247.959 240.222 250.335 243.847 249.564 247.548V247.548C248.009 255.018 240.693 259.813 233.223 258.259L232.668 258.143C228.464 257.269 225.766 253.152 226.641 248.949V248.949C228.092 241.981 234.916 237.508 241.884 238.958L244.257 239.452Z" fill="#FFB581"/>
<path d="M244.257 239.452C247.959 240.222 250.335 243.847 249.564 247.548V247.548C248.009 255.018 240.693 259.813 233.223 258.259L232.668 258.143C228.464 257.269 225.766 253.152 226.641 248.949V248.949C228.092 241.981 234.916 237.508 241.884 238.958L244.257 239.452Z" fill="#FFB581"/>
<path d="M370.79 250.89C374.092 249.047 378.264 250.23 380.107 253.532V253.532C383.827 260.194 381.441 268.608 374.778 272.325L374.286 272.6C370.536 274.692 365.799 273.348 363.705 269.599V269.599C360.235 263.385 362.461 255.536 368.676 252.069L370.79 250.89Z" fill="#FF9373"/>
<path d="M370.79 250.89C374.092 249.047 378.264 250.23 380.107 253.532V253.532C383.827 260.194 381.441 268.608 374.778 272.325L374.286 272.6C370.536 274.692 365.799 273.348 363.705 269.599V269.599C360.235 263.385 362.461 255.536 368.676 252.069L370.79 250.89Z" fill="#FF9373"/>
<path d="M278.44 209.883C282.142 210.653 284.518 214.278 283.747 217.98V217.98C282.192 225.449 274.876 230.244 267.407 228.69L266.851 228.575C262.647 227.7 259.949 223.584 260.824 219.38V219.38C262.275 212.413 269.1 207.94 276.067 209.389L278.44 209.883Z" fill="#77E0FF"/>
<path d="M278.44 209.883C282.142 210.653 284.518 214.278 283.747 217.98V217.98C282.192 225.449 274.876 230.244 267.407 228.69L266.851 228.575C262.647 227.7 259.949 223.584 260.824 219.38V219.38C262.275 212.413 269.1 207.94 276.067 209.389L278.44 209.883Z" fill="#77E0FF"/>
<path d="M304.939 172.817C308.212 172.533 311.095 174.956 311.379 178.229L311.509 179.718C312.043 185.878 307.483 191.304 301.323 191.839V191.839C297.607 192.161 294.332 189.409 294.01 185.693L293.987 185.435C293.432 179.039 298.167 173.404 304.563 172.85L304.939 172.817Z" fill="#FF9B9E"/>
<path d="M304.939 172.817C308.212 172.533 311.095 174.956 311.379 178.229L311.509 179.718C312.043 185.878 307.483 191.304 301.323 191.839V191.839C297.607 192.161 294.332 189.409 294.01 185.693L293.987 185.435C293.432 179.039 298.167 173.404 304.563 172.85L304.939 172.817Z" fill="#FF9B9E"/>
<path d="M284.316 148.2L280.586 141.109C270.042 121.067 274.257 95.8734 293.605 85.4071C297.824 83.125 301.961 81.2781 305.725 80.1961C309.52 79.1054 312.74 78.8495 315.233 79.5192C319.313 80.6154 322.66 83.6972 325.668 88.4965C328.68 93.3013 331.192 99.5733 333.703 106.639C340.467 125.673 332.393 148.287 314.634 157.621C303.662 163.388 290.088 159.17 284.316 148.2Z" fill="url(#paint18_linear_13_28)" stroke="#004E64" stroke-width="4"/>
<path d="M284.316 148.2L280.586 141.109C270.042 121.067 274.257 95.8734 293.605 85.4071C297.824 83.125 301.961 81.2781 305.725 80.1961C309.52 79.1054 312.74 78.8495 315.233 79.5192C319.313 80.6154 322.66 83.6972 325.668 88.4965C328.68 93.3013 331.192 99.5733 333.703 106.639C340.467 125.673 332.393 148.287 314.634 157.621C303.662 163.388 290.088 159.17 284.316 148.2Z" fill="url(#paint19_linear_13_28)" stroke="#004E64" stroke-width="4"/>
<path d="M302.154 136.759C299.354 126.892 307.908 117.523 317.994 119.411V119.411C328.639 121.404 332.958 134.305 325.657 142.301V142.301C318.356 150.297 305.109 147.173 302.154 136.759V136.759Z" fill="url(#paint20_linear_13_28)" fill-opacity="0.4"/>
<path d="M302.154 136.759C299.354 126.892 307.908 117.523 317.994 119.411V119.411C328.639 121.404 332.958 134.305 325.657 142.301V142.301C318.356 150.297 305.109 147.173 302.154 136.759V136.759Z" fill="url(#paint21_linear_13_28)" fill-opacity="0.4"/>
<rect x="-1.005" y="1.86785" width="30.973" height="199.271" rx="15.4865" transform="matrix(0.287774 0.957698 -0.957771 0.287532 197.197 2.81426)" fill="url(#paint22_linear_13_28)" stroke="#003D4A" stroke-width="3"/>
<rect x="-1.005" y="1.86785" width="30.973" height="199.271" rx="15.4865" transform="matrix(0.287774 0.957698 -0.957771 0.287532 197.197 2.81426)" fill="url(#paint23_linear_13_28)" stroke="#003D4A" stroke-width="3"/>
<rect x="-0.553607" y="2.04737" width="30.9834" height="199.209" rx="15.4917" transform="matrix(-0.867264 0.497849 0.498193 0.867066 520.125 162.708)" fill="url(#paint24_linear_13_28)" stroke="#003D4A" stroke-width="3"/>
<rect x="-0.553607" y="2.04737" width="30.9834" height="199.209" rx="15.4917" transform="matrix(-0.867264 0.497849 0.498193 0.867066 520.125 162.708)" fill="url(#paint25_linear_13_28)" stroke="#003D4A" stroke-width="3"/>
<rect x="-1.97239" y="-0.781782" width="30.9848" height="199.201" rx="15.4924" transform="matrix(-0.91797 0.39665 -0.396956 -0.917838 108.287 233.295)" fill="url(#paint26_linear_13_28)" stroke="#004323" stroke-width="3"/>
<rect x="-1.97239" y="-0.781782" width="30.9848" height="199.201" rx="15.4924" transform="matrix(-0.91797 0.39665 -0.396956 -0.917838 108.287 233.295)" fill="url(#paint27_linear_13_28)" stroke="#004323" stroke-width="3"/>
<rect x="1.97006" y="0.787641" width="30.9741" height="199.265" rx="15.487" transform="matrix(0.394226 0.919014 0.919145 -0.39392 422.94 388.586)" fill="url(#paint28_linear_13_28)" stroke="#004323" stroke-width="3"/>
<rect x="1.97006" y="0.787641" width="30.9741" height="199.265" rx="15.487" transform="matrix(0.394226 0.919014 0.919145 -0.39392 422.94 388.586)" fill="url(#paint29_linear_13_28)" stroke="#004323" stroke-width="3"/>
<defs>
<linearGradient id="paint0_linear_13_28" x1="197.441" y1="59.6974" x2="458.79" y2="354.329" gradientUnits="userSpaceOnUse">
<stop stop-color="#632138"/>
<stop offset="1" stop-color="#1A154B"/>
</linearGradient>
<linearGradient id="paint1_linear_13_28" x1="197.441" y1="59.6974" x2="458.79" y2="354.329" gradientUnits="userSpaceOnUse">
<stop stop-color="#632138"/>
<stop offset="1" stop-color="#1A154B"/>
</linearGradient>
<linearGradient id="paint2_linear_13_28" x1="219.055" y1="55.8039" x2="444.096" y2="349.105" gradientUnits="userSpaceOnUse">
<stop stop-color="#723B4E"/>
<stop offset="1" stop-color="#403978"/>
</linearGradient>
<linearGradient id="paint3_linear_13_28" x1="219.055" y1="55.8039" x2="444.096" y2="349.105" gradientUnits="userSpaceOnUse">
<stop stop-color="#723B4E"/>
<stop offset="1" stop-color="#403978"/>
</linearGradient>
<linearGradient id="paint4_linear_13_28" x1="278.572" y1="42.1637" x2="442.638" y2="333.453" gradientUnits="userSpaceOnUse">
<stop stop-color="#934D64"/>
<stop offset="1" stop-color="#5D5898"/>
</linearGradient>
<linearGradient id="paint5_linear_13_28" x1="278.572" y1="42.1637" x2="442.638" y2="333.453" gradientUnits="userSpaceOnUse">
<stop stop-color="#934D64"/>
<stop offset="1" stop-color="#5D5898"/>
</linearGradient>
<linearGradient id="paint6_linear_13_28" x1="268.705" y1="54.7661" x2="351.685" y2="320.808" gradientUnits="userSpaceOnUse">
<stop stop-color="#DD244E"/>
<stop offset="1" stop-color="#4141B4"/>
</linearGradient>
<linearGradient id="paint7_linear_13_28" x1="268.705" y1="54.7661" x2="351.685" y2="320.808" gradientUnits="userSpaceOnUse">
<stop stop-color="#DD244E"/>
<stop offset="1" stop-color="#4141B4"/>
</linearGradient>
<linearGradient id="paint8_linear_13_28" x1="276.819" y1="155.476" x2="301.73" y2="201.373" gradientUnits="userSpaceOnUse">
<stop stop-color="#A259FF"/>
<stop offset="1" stop-color="#FF9559"/>
</linearGradient>
<linearGradient id="paint9_linear_13_28" x1="276.819" y1="155.476" x2="301.73" y2="201.373" gradientUnits="userSpaceOnUse">
<stop stop-color="#A259FF"/>
<stop offset="1" stop-color="#FF9559"/>
</linearGradient>
<linearGradient id="paint10_linear_13_28" x1="330.286" y1="130.787" x2="344.977" y2="179.864" gradientUnits="userSpaceOnUse">
<stop stop-color="#F5DF1B"/>
<stop offset="1" stop-color="#1BF5A7"/>
</linearGradient>
<linearGradient id="paint11_linear_13_28" x1="330.286" y1="130.787" x2="344.977" y2="179.864" gradientUnits="userSpaceOnUse">
<stop stop-color="#F5DF1B"/>
<stop offset="1" stop-color="#1BF5A7"/>
</linearGradient>
<linearGradient id="paint12_linear_13_28" x1="363.894" y1="154.453" x2="351.046" y2="211.775" gradientUnits="userSpaceOnUse">
<stop stop-color="#ED2CA0"/>
<stop offset="1" stop-color="#BB2CED"/>
</linearGradient>
<linearGradient id="paint13_linear_13_28" x1="363.894" y1="154.453" x2="351.046" y2="211.775" gradientUnits="userSpaceOnUse">
<stop stop-color="#ED2CA0"/>
<stop offset="1" stop-color="#BB2CED"/>
</linearGradient>
<linearGradient id="paint14_linear_13_28" x1="361.565" y1="202.222" x2="373.047" y2="282.888" gradientUnits="userSpaceOnUse">
<stop stop-color="#5F6DEF"/>
<stop offset="1" stop-color="#5FEFCC"/>
</linearGradient>
<linearGradient id="paint15_linear_13_28" x1="361.565" y1="202.222" x2="373.047" y2="282.888" gradientUnits="userSpaceOnUse">
<stop stop-color="#5F6DEF"/>
<stop offset="1" stop-color="#5FEFCC"/>
</linearGradient>
<linearGradient id="paint16_linear_13_28" x1="261.557" y1="186.023" x2="265.655" y2="251.367" gradientUnits="userSpaceOnUse">
<stop stop-color="#67FBCF"/>
<stop offset="0.552083" stop-color="#1ABCFE"/>
<stop offset="1" stop-color="#00FFD1"/>
</linearGradient>
<linearGradient id="paint17_linear_13_28" x1="261.557" y1="186.023" x2="265.655" y2="251.367" gradientUnits="userSpaceOnUse">
<stop stop-color="#67FBCF"/>
<stop offset="0.552083" stop-color="#1ABCFE"/>
<stop offset="1" stop-color="#00FFD1"/>
</linearGradient>
<linearGradient id="paint18_linear_13_28" x1="295.798" y1="174.073" x2="319.036" y2="97.1506" gradientUnits="userSpaceOnUse">
<stop stop-color="#1A7FEF"/>
<stop offset="1" stop-color="#73F6EA"/>
</linearGradient>
<linearGradient id="paint19_linear_13_28" x1="295.798" y1="174.073" x2="319.036" y2="97.1506" gradientUnits="userSpaceOnUse">
<stop stop-color="#1A7FEF"/>
<stop offset="1" stop-color="#73F6EA"/>
</linearGradient>
<linearGradient id="paint20_linear_13_28" x1="296.066" y1="115.307" x2="335.504" y2="151.317" gradientUnits="userSpaceOnUse">
<stop stop-color="#B5FFED"/>
<stop offset="1" stop-color="#CFD4FF"/>
</linearGradient>
<linearGradient id="paint21_linear_13_28" x1="296.066" y1="115.307" x2="335.504" y2="151.317" gradientUnits="userSpaceOnUse">
<stop stop-color="#B5FFED"/>
<stop offset="1" stop-color="#CFD4FF"/>
</linearGradient>
<linearGradient id="paint22_linear_13_28" x1="16.9865" y1="0" x2="16.9865" y2="202.271" gradientUnits="userSpaceOnUse">
<stop stop-color="#007D98"/>
<stop offset="1" stop-color="#5EE2FF"/>
</linearGradient>
<linearGradient id="paint23_linear_13_28" x1="16.9865" y1="0" x2="16.9865" y2="202.271" gradientUnits="userSpaceOnUse">
<stop stop-color="#007D98"/>
<stop offset="1" stop-color="#5EE2FF"/>
</linearGradient>
<linearGradient id="paint24_linear_13_28" x1="16.9917" y1="0" x2="16.9917" y2="202.209" gradientUnits="userSpaceOnUse">
<stop stop-color="#007D98"/>
<stop offset="1" stop-color="#5EE2FF"/>
</linearGradient>
<linearGradient id="paint25_linear_13_28" x1="16.9917" y1="0" x2="16.9917" y2="202.209" gradientUnits="userSpaceOnUse">
<stop stop-color="#007D98"/>
<stop offset="1" stop-color="#5EE2FF"/>
</linearGradient>
<linearGradient id="paint26_linear_13_28" x1="16.9924" y1="0" x2="16.9924" y2="202.201" gradientUnits="userSpaceOnUse">
<stop stop-color="#03A055"/>
<stop offset="1" stop-color="#77FFBE"/>
</linearGradient>
<linearGradient id="paint27_linear_13_28" x1="16.9924" y1="0" x2="16.9924" y2="202.201" gradientUnits="userSpaceOnUse">
<stop stop-color="#03A055"/>
<stop offset="1" stop-color="#77FFBE"/>
</linearGradient>
<linearGradient id="paint28_linear_13_28" x1="16.987" y1="0" x2="16.987" y2="202.265" gradientUnits="userSpaceOnUse">
<stop stop-color="#03A055"/>
<stop offset="1" stop-color="#77FFBE"/>
</linearGradient>
<linearGradient id="paint29_linear_13_28" x1="16.987" y1="0" x2="16.987" y2="202.265" gradientUnits="userSpaceOnUse">
<stop stop-color="#03A055"/>
<stop offset="1" stop-color="#77FFBE"/>
</linearGradient>
</defs>
</svg>
