<svg width="327" height="330" viewBox="0 0 327 330" fill="none" xmlns="http://www.w3.org/2000/svg">
<path d="M0.963745 164.056C0.963745 74.1387 73.8562 0.465393 163.774 0.465393V0.465393C253.691 0.465393 326.584 73.3579 326.584 163.275V291.088C326.584 312.15 309.51 329.224 288.448 329.224H165.343C74.5587 329.224 0.963745 254.84 0.963745 164.056V164.056Z" fill="url(#paint0_linear_14_30)" fill-opacity="0.85"/>
<path d="M0.963745 164.056C0.963745 74.1387 73.8562 0.465393 163.774 0.465393V0.465393C253.691 0.465393 326.584 73.3579 326.584 163.275V291.088C326.584 312.15 309.51 329.224 288.448 329.224H165.343C74.5587 329.224 0.963745 254.84 0.963745 164.056V164.056Z" fill="url(#paint1_linear_14_30)" fill-opacity="0.85"/>
<path d="M7.54199 164.329C7.54199 77.8927 77.6121 7.04059 164.048 7.04059V7.04059C250.484 7.04059 320.554 77.1106 320.554 163.546V285.048C320.554 306.117 303.474 323.196 282.405 323.196H165.62C78.3159 323.196 7.54199 251.633 7.54199 164.329V164.329Z" fill="url(#paint2_linear_14_30)" fill-opacity="0.86"/>
<path d="M7.54199 164.329C7.54199 77.8927 77.6121 7.04059 164.048 7.04059V7.04059C250.484 7.04059 320.554 77.1106 320.554 163.546V285.048C320.554 306.117 303.474 323.196 282.405 323.196H165.62C78.3159 323.196 7.54199 251.633 7.54199 164.329V164.329Z" fill="url(#paint3_linear_14_30)" fill-opacity="0.86"/>
<path d="M14.6683 163.505C14.6683 81.4587 81.1797 14.1637 163.226 14.1637V14.1637C245.271 14.1637 311.783 80.675 311.783 162.721V277.051C311.783 297.694 295.048 314.429 274.404 314.429H164.801C81.8852 314.429 14.6683 246.421 14.6683 163.505V163.505Z" fill="url(#paint4_linear_14_30)" fill-opacity="0.9"/>
<path d="M14.6683 163.505C14.6683 81.4587 81.1797 14.1637 163.226 14.1637V14.1637C245.271 14.1637 311.783 80.675 311.783 162.721V277.051C311.783 297.694 295.048 314.429 274.404 314.429H164.801C81.8852 314.429 14.6683 246.421 14.6683 163.505V163.505Z" fill="url(#paint5_linear_14_30)" fill-opacity="0.9"/>
<ellipse cx="163.5" cy="163.201" rx="137.868" ry="136.435" fill="url(#paint6_linear_14_30)" fill-opacity="0.65"/>
<ellipse cx="163.5" cy="163.201" rx="137.868" ry="136.435" fill="url(#paint7_linear_14_30)" fill-opacity="0.65"/>
<path d="M165.238 169.277L164.117 169.932C156.52 174.368 146.763 171.807 142.324 164.212C134.6 150.997 139.054 134.026 152.272 126.307L157.091 123.493C163.667 119.653 172.113 121.87 175.955 128.444C184.276 142.681 179.478 160.962 165.238 169.277Z" fill="url(#paint8_linear_14_30)" stroke="#602144" stroke-width="4"/>
<path d="M165.238 169.277L164.117 169.932C156.52 174.368 146.763 171.807 142.324 164.212C134.6 150.997 139.054 134.026 152.272 126.307L157.091 123.493C163.667 119.653 172.113 121.87 175.955 128.444C184.276 142.681 179.478 160.962 165.238 169.277Z" fill="url(#paint9_linear_14_30)" stroke="#602144" stroke-width="4"/>
<path d="M224.48 125.556L224.907 126.766C227.838 135.063 223.487 144.164 215.189 147.093C200.749 152.188 184.91 144.615 179.81 130.177L177.961 124.942C175.424 117.76 179.194 109.881 186.378 107.345C201.926 101.859 218.989 110.011 224.48 125.556Z" fill="url(#paint10_linear_14_30)" stroke="#276700" stroke-width="4"/>
<path d="M224.48 125.556L224.907 126.766C227.838 135.063 223.487 144.164 215.189 147.093C200.749 152.188 184.91 144.615 179.81 130.177L177.961 124.942C175.424 117.76 179.194 109.881 186.378 107.345C201.926 101.859 218.989 110.011 224.48 125.556Z" fill="url(#paint11_linear_14_30)" stroke="#276700" stroke-width="4"/>
<path d="M241.882 146.951L244.179 154.588C246.608 162.665 242.028 171.18 233.95 173.607L216.321 178.903C209.229 181.034 201.751 177.012 199.618 169.921L198.599 166.531C194.354 152.413 202.358 137.53 216.477 133.288C227.265 130.047 238.639 136.164 241.882 146.951Z" fill="url(#paint12_linear_14_30)" stroke="#610054" stroke-width="4"/>
<path d="M241.882 146.951L244.179 154.588C246.608 162.665 242.028 171.18 233.95 173.607L216.321 178.903C209.229 181.034 201.751 177.012 199.618 169.921L198.599 166.531C194.354 152.413 202.358 137.53 216.477 133.288C227.265 130.047 238.639 136.164 241.882 146.951Z" fill="url(#paint13_linear_14_30)" stroke="#610054" stroke-width="4"/>
<path d="M236.237 153.137C238.251 154.582 238.712 157.385 237.266 159.398L233.974 163.983C231.253 167.772 225.975 168.639 222.184 165.92V165.92C219.898 164.279 219.374 161.096 221.016 158.81L223.598 155.214C226.515 151.152 232.174 150.222 236.237 153.137V153.137Z" fill="#FF66C8"/>
<path d="M236.237 153.137C238.251 154.582 238.712 157.385 237.266 159.398L233.974 163.983C231.253 167.772 225.975 168.639 222.184 165.92V165.92C219.898 164.279 219.374 161.096 221.016 158.81L223.598 155.214C226.515 151.152 232.174 150.222 236.237 153.137V153.137Z" fill="#FF66C8"/>
<path d="M210.621 112.458C211.803 111.507 213.533 111.694 214.485 112.876L218.184 117.468C219.975 119.693 219.624 122.947 217.399 124.738V124.738C216.056 125.818 214.092 125.606 213.011 124.264L209.779 120.251C207.859 117.867 208.235 114.378 210.621 112.458V112.458Z" fill="#CDFFA6"/>
<path d="M210.621 112.458C211.803 111.507 213.533 111.694 214.485 112.876L218.184 117.468C219.975 119.693 219.624 122.947 217.399 124.738V124.738C216.056 125.818 214.092 125.606 213.011 124.264L209.779 120.251C207.859 117.867 208.235 114.378 210.621 112.458V112.458Z" fill="#CDFFA6"/>
<path d="M228.449 217.43L227.19 217.78C218.713 220.129 209.935 215.163 207.583 206.687C203.49 191.938 212.13 176.667 226.879 172.578L232.264 171.086C239.602 169.052 247.2 173.35 249.236 180.687C253.645 196.575 244.338 213.026 228.449 217.43Z" fill="url(#paint14_linear_14_30)" stroke="#243D79" stroke-width="4"/>
<path d="M228.449 217.43L227.19 217.78C218.713 220.129 209.935 215.163 207.583 206.687C203.49 191.938 212.13 176.667 226.879 172.578L232.264 171.086C239.602 169.052 247.2 173.35 249.236 180.687C253.645 196.575 244.338 213.026 228.449 217.43Z" fill="url(#paint15_linear_14_30)" stroke="#243D79" stroke-width="4"/>
<path d="M71.185 238.732L69.8363 238.018C60.5401 233.099 56.9942 221.577 61.9163 212.283C70.4145 196.236 90.3148 190.112 106.365 198.604L112.155 201.668C120.225 205.937 123.303 215.939 119.03 224.007C109.883 241.28 88.4617 247.873 71.185 238.732Z" fill="#FF8B37" stroke="#623514" stroke-width="4"/>
<path d="M71.185 238.732L69.8363 238.018C60.5401 233.099 56.9942 221.577 61.9163 212.283C70.4145 196.236 90.3148 190.112 106.365 198.604L112.155 201.668C120.225 205.937 123.303 215.939 119.03 224.007C109.883 241.28 88.4617 247.873 71.185 238.732Z" fill="#FF8B37" stroke="#623514" stroke-width="4"/>
<path d="M250.173 229.951L250.1 231.211C249.055 249.156 233.661 262.857 215.717 261.813L215.028 261.773C205.019 261.191 197.378 252.606 197.96 242.597C198.968 225.283 213.821 212.063 231.135 213.07L235.368 213.316C244.05 213.821 250.678 221.269 250.173 229.951Z" fill="#C22C00" stroke="#6C2713" stroke-width="4"/>
<path d="M250.173 229.951L250.1 231.211C249.055 249.156 233.661 262.857 215.717 261.813L215.028 261.773C205.019 261.191 197.378 252.606 197.96 242.597C198.968 225.283 213.821 212.063 231.135 213.07L235.368 213.316C244.05 213.821 250.678 221.269 250.173 229.951Z" fill="#C22C00" stroke="#6C2713" stroke-width="4"/>
<path d="M247.953 190.192C249.004 198.313 243.272 205.748 235.151 206.798V206.798C234.49 206.883 233.884 206.416 233.798 205.754L232.523 195.898C232.095 192.593 234.428 189.567 237.733 189.14L246.367 188.024C247.076 187.932 247.726 188.432 247.817 189.141L247.953 190.192Z" fill="#68BEFF"/>
<path d="M247.953 190.192C249.004 198.313 243.272 205.748 235.151 206.798V206.798C234.49 206.883 233.884 206.416 233.798 205.754L232.523 195.898C232.095 192.593 234.428 189.567 237.733 189.14L246.367 188.024C247.076 187.932 247.726 188.432 247.817 189.141L247.953 190.192Z" fill="#68BEFF"/>
<path d="M232.074 209.499C240.605 207.7 248.981 213.157 250.781 221.688V221.688C254.415 238.901 243.399 255.8 226.185 259.43V259.43C215.796 261.621 205.593 254.976 203.4 244.587L202.661 241.087C199.828 227.665 208.412 214.489 221.835 211.659L232.074 209.499Z" fill="#F24E1E"/>
<path d="M232.074 209.499C240.605 207.7 248.981 213.157 250.781 221.688V221.688C254.415 238.901 243.399 255.8 226.185 259.43V259.43C215.796 261.621 205.593 254.976 203.4 244.587L202.661 241.087C199.828 227.665 208.412 214.489 221.835 211.659L232.074 209.499Z" fill="#F24E1E"/>
<path d="M120.595 205.51L119.307 205.278C110.649 203.721 104.895 195.441 106.453 186.783C109.166 171.72 123.576 161.705 138.64 164.415L144.141 165.405C151.635 166.753 156.616 173.92 155.267 181.414C152.345 197.641 136.822 208.429 120.595 205.51Z" fill="url(#paint16_linear_14_30)" stroke="#00717E" stroke-width="4"/>
<path d="M120.595 205.51L119.307 205.278C110.649 203.721 104.895 195.441 106.453 186.783C109.166 171.72 123.576 161.705 138.64 164.415L144.141 165.405C151.635 166.753 156.616 173.92 155.267 181.414C152.345 197.641 136.822 208.429 120.595 205.51Z" fill="url(#paint17_linear_14_30)" stroke="#00717E" stroke-width="4"/>
<path d="M115.577 198.855C123.284 202.933 126.224 212.485 122.143 220.191V220.191C113.909 235.739 94.6271 241.673 79.0758 233.445L77.9267 232.837C69.1746 228.206 65.8362 217.358 70.4703 208.608V208.608C78.151 194.105 96.1372 188.569 110.644 196.245L115.577 198.855Z" fill="#FF9B53"/>
<path d="M115.577 198.855C123.284 202.933 126.224 212.485 122.143 220.191V220.191C113.909 235.739 94.6271 241.673 79.0758 233.445L77.9267 232.837C69.1746 228.206 65.8362 217.358 70.4703 208.608V208.608C78.151 194.105 96.1372 188.569 110.644 196.245L115.577 198.855Z" fill="#FF9B53"/>
<path d="M107.257 211.452C110.959 212.222 113.335 215.847 112.564 219.548V219.548C111.009 227.018 103.693 231.813 96.2231 230.259L95.6676 230.143C91.4639 229.269 88.7656 225.152 89.6409 220.949V220.949C91.0917 213.981 97.9162 209.508 104.884 210.958L107.257 211.452Z" fill="#FFB581"/>
<path d="M107.257 211.452C110.959 212.222 113.335 215.847 112.564 219.548V219.548C111.009 227.018 103.693 231.813 96.2231 230.259L95.6676 230.143C91.4639 229.269 88.7656 225.152 89.6409 220.949V220.949C91.0917 213.981 97.9162 209.508 104.884 210.958L107.257 211.452Z" fill="#FFB581"/>
<path d="M233.79 222.89C237.092 221.047 241.264 222.23 243.107 225.532V225.532C246.827 232.194 244.441 240.608 237.778 244.325L237.286 244.6C233.536 246.692 228.799 245.348 226.705 241.599V241.599C223.235 235.385 225.461 227.536 231.676 224.069L233.79 222.89Z" fill="#FF9373"/>
<path d="M233.79 222.89C237.092 221.047 241.264 222.23 243.107 225.532V225.532C246.827 232.194 244.441 240.608 237.778 244.325L237.286 244.6C233.536 246.692 228.799 245.348 226.705 241.599V241.599C223.235 235.385 225.461 227.536 231.676 224.069L233.79 222.89Z" fill="#FF9373"/>
<path d="M141.44 181.883C145.142 182.653 147.518 186.278 146.747 189.98V189.98C145.192 197.449 137.876 202.244 130.407 200.69L129.851 200.575C125.647 199.7 122.949 195.584 123.824 191.38V191.38C125.275 184.413 132.1 179.94 139.067 181.389L141.44 181.883Z" fill="#77E0FF"/>
<path d="M141.44 181.883C145.142 182.653 147.518 186.278 146.747 189.98V189.98C145.192 197.449 137.876 202.244 130.407 200.69L129.851 200.575C125.647 199.7 122.949 195.584 123.824 191.38V191.38C125.275 184.413 132.1 179.94 139.067 181.389L141.44 181.883Z" fill="#77E0FF"/>
<path d="M167.939 144.817C171.212 144.533 174.095 146.956 174.379 150.229L174.509 151.718C175.043 157.878 170.483 163.304 164.323 163.839V163.839C160.607 164.161 157.332 161.409 157.01 157.693L156.987 157.435C156.432 151.039 161.167 145.404 167.563 144.85L167.939 144.817Z" fill="#FF9B9E"/>
<path d="M167.939 144.817C171.212 144.533 174.095 146.956 174.379 150.229L174.509 151.718C175.043 157.878 170.483 163.304 164.323 163.839V163.839C160.607 164.161 157.332 161.409 157.01 157.693L156.987 157.435C156.432 151.039 161.167 145.404 167.563 144.85L167.939 144.817Z" fill="#FF9B9E"/>
<path d="M147.316 120.2L143.586 113.109C133.042 93.0669 137.257 67.8734 156.605 57.4071C160.824 55.125 164.961 53.2781 168.725 52.1961C172.52 51.1054 175.74 50.8495 178.233 51.5192C182.313 52.6154 185.66 55.6972 188.668 60.4965C191.68 65.3013 194.192 71.5733 196.703 78.6393C203.467 97.6733 195.393 120.287 177.634 129.621C166.662 135.388 153.088 131.17 147.316 120.2Z" fill="url(#paint18_linear_14_30)" stroke="#004E64" stroke-width="4"/>
<path d="M147.316 120.2L143.586 113.109C133.042 93.0669 137.257 67.8734 156.605 57.4071C160.824 55.125 164.961 53.2781 168.725 52.1961C172.52 51.1054 175.74 50.8495 178.233 51.5192C182.313 52.6154 185.66 55.6972 188.668 60.4965C191.68 65.3013 194.192 71.5733 196.703 78.6393C203.467 97.6733 195.393 120.287 177.634 129.621C166.662 135.388 153.088 131.17 147.316 120.2Z" fill="url(#paint19_linear_14_30)" stroke="#004E64" stroke-width="4"/>
<path d="M165.154 108.759C162.354 98.8923 170.908 89.5235 180.994 91.4114V91.4114C191.639 93.404 195.958 106.305 188.657 114.301V114.301C181.356 122.297 168.109 119.173 165.154 108.759V108.759Z" fill="url(#paint20_linear_14_30)" fill-opacity="0.4"/>
<path d="M165.154 108.759C162.354 98.8923 170.908 89.5235 180.994 91.4114V91.4114C191.639 93.404 195.958 106.305 188.657 114.301V114.301C181.356 122.297 168.109 119.173 165.154 108.759V108.759Z" fill="url(#paint21_linear_14_30)" fill-opacity="0.4"/>
<defs>
<linearGradient id="paint0_linear_14_30" x1="60.4415" y1="31.6974" x2="321.79" y2="326.329" gradientUnits="userSpaceOnUse">
<stop stop-color="#632138"/>
<stop offset="1" stop-color="#1A154B"/>
</linearGradient>
<linearGradient id="paint1_linear_14_30" x1="60.4415" y1="31.6974" x2="321.79" y2="326.329" gradientUnits="userSpaceOnUse">
<stop stop-color="#632138"/>
<stop offset="1" stop-color="#1A154B"/>
</linearGradient>
<linearGradient id="paint2_linear_14_30" x1="82.0554" y1="27.8039" x2="307.096" y2="321.105" gradientUnits="userSpaceOnUse">
<stop stop-color="#723B4E"/>
<stop offset="1" stop-color="#403978"/>
</linearGradient>
<linearGradient id="paint3_linear_14_30" x1="82.0554" y1="27.8039" x2="307.096" y2="321.105" gradientUnits="userSpaceOnUse">
<stop stop-color="#723B4E"/>
<stop offset="1" stop-color="#403978"/>
</linearGradient>
<linearGradient id="paint4_linear_14_30" x1="141.572" y1="14.1637" x2="305.638" y2="305.453" gradientUnits="userSpaceOnUse">
<stop stop-color="#934D64"/>
<stop offset="1" stop-color="#5D5898"/>
</linearGradient>
<linearGradient id="paint5_linear_14_30" x1="141.572" y1="14.1637" x2="305.638" y2="305.453" gradientUnits="userSpaceOnUse">
<stop stop-color="#934D64"/>
<stop offset="1" stop-color="#5D5898"/>
</linearGradient>
<linearGradient id="paint6_linear_14_30" x1="131.705" y1="26.7661" x2="214.685" y2="292.808" gradientUnits="userSpaceOnUse">
<stop stop-color="#DD244E"/>
<stop offset="1" stop-color="#4141B4"/>
</linearGradient>
<linearGradient id="paint7_linear_14_30" x1="131.705" y1="26.7661" x2="214.685" y2="292.808" gradientUnits="userSpaceOnUse">
<stop stop-color="#DD244E"/>
<stop offset="1" stop-color="#4141B4"/>
</linearGradient>
<linearGradient id="paint8_linear_14_30" x1="139.819" y1="127.476" x2="164.73" y2="173.373" gradientUnits="userSpaceOnUse">
<stop stop-color="#A259FF"/>
<stop offset="1" stop-color="#FF9559"/>
</linearGradient>
<linearGradient id="paint9_linear_14_30" x1="139.819" y1="127.476" x2="164.73" y2="173.373" gradientUnits="userSpaceOnUse">
<stop stop-color="#A259FF"/>
<stop offset="1" stop-color="#FF9559"/>
</linearGradient>
<linearGradient id="paint10_linear_14_30" x1="193.286" y1="102.787" x2="207.977" y2="151.864" gradientUnits="userSpaceOnUse">
<stop stop-color="#F5DF1B"/>
<stop offset="1" stop-color="#1BF5A7"/>
</linearGradient>
<linearGradient id="paint11_linear_14_30" x1="193.286" y1="102.787" x2="207.977" y2="151.864" gradientUnits="userSpaceOnUse">
<stop stop-color="#F5DF1B"/>
<stop offset="1" stop-color="#1BF5A7"/>
</linearGradient>
<linearGradient id="paint12_linear_14_30" x1="226.894" y1="126.453" x2="214.046" y2="183.775" gradientUnits="userSpaceOnUse">
<stop stop-color="#ED2CA0"/>
<stop offset="1" stop-color="#BB2CED"/>
</linearGradient>
<linearGradient id="paint13_linear_14_30" x1="226.894" y1="126.453" x2="214.046" y2="183.775" gradientUnits="userSpaceOnUse">
<stop stop-color="#ED2CA0"/>
<stop offset="1" stop-color="#BB2CED"/>
</linearGradient>
<linearGradient id="paint14_linear_14_30" x1="224.565" y1="174.222" x2="236.047" y2="254.888" gradientUnits="userSpaceOnUse">
<stop stop-color="#5F6DEF"/>
<stop offset="1" stop-color="#5FEFCC"/>
</linearGradient>
<linearGradient id="paint15_linear_14_30" x1="224.565" y1="174.222" x2="236.047" y2="254.888" gradientUnits="userSpaceOnUse">
<stop stop-color="#5F6DEF"/>
<stop offset="1" stop-color="#5FEFCC"/>
</linearGradient>
<linearGradient id="paint16_linear_14_30" x1="124.557" y1="158.023" x2="128.655" y2="223.367" gradientUnits="userSpaceOnUse">
<stop stop-color="#67FBCF"/>
<stop offset="0.552083" stop-color="#1ABCFE"/>
<stop offset="1" stop-color="#00FFD1"/>
</linearGradient>
<linearGradient id="paint17_linear_14_30" x1="124.557" y1="158.023" x2="128.655" y2="223.367" gradientUnits="userSpaceOnUse">
<stop stop-color="#67FBCF"/>
<stop offset="0.552083" stop-color="#1ABCFE"/>
<stop offset="1" stop-color="#00FFD1"/>
</linearGradient>
<linearGradient id="paint18_linear_14_30" x1="158.798" y1="146.073" x2="182.036" y2="69.1506" gradientUnits="userSpaceOnUse">
<stop stop-color="#1A7FEF"/>
<stop offset="1" stop-color="#73F6EA"/>
</linearGradient>
<linearGradient id="paint19_linear_14_30" x1="158.798" y1="146.073" x2="182.036" y2="69.1506" gradientUnits="userSpaceOnUse">
<stop stop-color="#1A7FEF"/>
<stop offset="1" stop-color="#73F6EA"/>
</linearGradient>
<linearGradient id="paint20_linear_14_30" x1="159.066" y1="87.3067" x2="198.504" y2="123.317" gradientUnits="userSpaceOnUse">
<stop stop-color="#B5FFED"/>
<stop offset="1" stop-color="#CFD4FF"/>
</linearGradient>
<linearGradient id="paint21_linear_14_30" x1="159.066" y1="87.3067" x2="198.504" y2="123.317" gradientUnits="userSpaceOnUse">
<stop stop-color="#B5FFED"/>
<stop offset="1" stop-color="#CFD4FF"/>
</linearGradient>
</defs>
</svg>
