<svg width="587" height="593" viewBox="0 0 587 593" fill="none" xmlns="http://www.w3.org/2000/svg">
<path d="M0 296.248C0 134.152 131.404 0 293.5 0V0C455.596 0 587 131.404 587 293.5V554C587 575.539 569.539 593 548 593H294C131.628 593 0 458.619 0 296.248V296.248Z" fill="#9FE8ED"/>
<path d="M12 293C12 137.808 139.308 12 294.5 12V12C449.692 12 577 137.808 577 293V544C577 565.539 559.539 583 538 583H293C137.808 583 12 457.192 12 302V293Z" fill="#5CD0D0"/>
<path d="M25 296C25 146.331 146.331 25 296 25V25C445.669 25 567 146.331 567 296V534C567 555.539 549.539 573 528 573H296C146.331 573 25 451.669 25 302V296Z" fill="url(#paint0_linear_5_2)"/>
<ellipse cx="296.5" cy="297" rx="251.5" ry="249" fill="url(#paint1_linear_5_2)"/>
<path d="M282.962 221.384C296.701 213.357 314.347 217.99 322.373 231.729V231.729C338.567 259.449 329.226 295.051 301.506 311.245L299.474 312.432C283.872 321.547 263.835 316.288 254.721 300.687V300.687C239.613 274.827 248.329 241.617 274.189 226.509L282.962 221.384Z" fill="url(#paint2_linear_5_2)"/>
<path d="M319.436 228.382C314.139 213.378 322.009 196.919 337.013 191.622V191.622C367.285 180.934 400.494 196.809 411.182 227.081L411.965 229.3C417.981 246.339 409.045 265.028 392.007 271.044V271.044C363.766 281.014 332.79 266.204 322.819 237.963L319.436 228.382Z" fill="url(#paint3_linear_5_2)"/>
<path d="M376.815 240.852C386.918 228.56 405.075 226.787 417.368 236.891V236.891C442.168 257.276 445.751 293.909 425.365 318.71L423.871 320.528C412.397 334.487 391.78 336.501 377.821 325.028V325.028C354.685 306.011 351.345 271.838 370.363 248.702L376.815 240.852Z" fill="url(#paint4_linear_5_2)"/>
<path d="M422.84 269.703C427.358 269.533 431.159 273.058 431.329 277.577L431.716 287.872C432.036 296.377 425.4 303.531 416.895 303.851V303.851C411.764 304.044 407.447 300.041 407.255 294.909L406.951 286.832C406.608 277.715 413.722 270.045 422.84 269.703V269.703Z" fill="#FF66C8"/>
<path d="M382.459 204.393C384.616 202.656 387.771 202.997 389.508 205.154L396.256 213.537C399.524 217.596 398.882 223.535 394.823 226.803V226.803C392.374 228.774 388.791 228.387 386.819 225.938L380.923 218.615C377.42 214.263 378.108 207.896 382.459 204.393V204.393Z" fill="#CDFFA6"/>
<path d="M420.955 307.876C436.288 303.624 452.165 312.608 456.418 327.941V327.941C464.998 358.877 446.876 390.914 415.94 399.494L413.672 400.123C396.26 404.952 378.23 394.752 373.401 377.34V377.34C365.397 348.48 382.304 318.596 411.163 310.592L420.955 307.876Z" fill="url(#paint5_linear_5_2)"/>
<path d="M204.537 363.974C221.043 372.712 227.34 393.177 218.602 409.684V409.684C200.974 442.986 159.684 455.697 126.381 438.068L123.939 436.776C105.195 426.854 98.0435 403.615 107.966 384.871V384.871C124.411 353.803 162.928 341.949 193.996 358.395L204.537 363.974Z" fill="#FF8B37"/>
<path d="M427.8 384.819C445.658 385.858 459.292 401.177 458.253 419.034L458.118 421.363C456.096 456.11 426.29 482.638 391.543 480.617L390.303 480.545C370.024 479.365 354.542 461.969 355.721 441.69V441.69C357.677 408.079 386.51 382.417 420.121 384.372L427.8 384.819Z" fill="#C22C00"/>
<path d="M434.975 346.569C441.807 346.999 446.997 352.886 446.568 359.718V359.718C445.702 373.503 433.825 383.977 420.04 383.111L419.029 383.047C411.271 382.56 405.376 375.875 405.864 368.116V368.116C406.672 355.256 417.752 345.487 430.612 346.295L434.975 346.569Z" fill="#68BEFF"/>
<path d="M421.583 381.5C437.152 378.215 452.436 388.175 455.721 403.744V403.744C462.348 435.157 442.257 465.997 410.845 472.624L408.542 473.11C390.862 476.84 373.506 465.532 369.776 447.852V447.852C363.593 418.548 382.337 389.78 411.641 383.598L421.583 381.5Z" fill="#F24E1E"/>
<path d="M261.82 297.428C277.48 300.246 287.89 315.227 285.072 330.888V330.888C279.386 362.484 249.162 383.491 217.566 377.805L215.25 377.388C197.466 374.188 185.644 357.177 188.845 339.394V339.394C194.149 309.918 222.344 290.323 251.82 295.628L261.82 297.428Z" fill="url(#paint6_linear_5_2)"/>
<path d="M209.072 362.067C223.135 369.511 228.5 386.948 221.056 401.011V401.011C206.036 429.384 170.858 440.213 142.484 425.194L140.404 424.093C124.434 415.639 118.341 395.84 126.795 379.871V379.871C140.806 353.401 173.622 343.302 200.092 357.313L209.072 362.067Z" fill="#FF9B53"/>
<path d="M193.896 385.059C200.652 386.465 204.989 393.082 203.582 399.838V399.838C200.745 413.469 187.396 422.22 173.765 419.383L172.766 419.175C165.094 417.578 160.169 410.065 161.766 402.393V402.393C164.413 389.677 176.866 381.515 189.582 384.161L193.896 385.059Z" fill="#FFB581"/>
<path d="M424.722 405.937C430.747 402.574 438.359 404.733 441.722 410.758V410.758C448.507 422.915 444.153 438.273 431.996 445.058L431.105 445.556C424.262 449.375 415.619 446.924 411.8 440.081V440.081C405.47 428.74 409.533 414.414 420.874 408.084L424.722 405.937Z" fill="#FF9373"/>
<path d="M256.254 331.095C263.01 332.501 267.346 339.118 265.94 345.874V345.874C263.103 359.504 249.753 368.256 236.123 365.419L235.124 365.211C227.452 363.614 222.527 356.1 224.124 348.429V348.429C226.77 335.713 239.224 327.55 251.94 330.197L256.254 331.095Z" fill="#77E0FF"/>
<path d="M304.599 263.449C310.569 262.931 315.829 267.351 316.347 273.321L316.584 276.052C317.559 287.289 309.239 297.189 298.002 298.164V298.164C291.222 298.752 285.249 293.733 284.661 286.953L284.62 286.477C283.607 274.804 292.249 264.52 303.922 263.507L304.599 263.449Z" fill="#FF9B9E"/>
<path d="M323.983 238.946C302.183 250.409 275.218 242.03 263.754 220.23L253.952 201.589C235.831 167.128 242.957 123.449 276.6 103.852C294.064 93.6798 312.09 86.3627 324.323 89.6511C341.736 94.3318 351.342 115.638 360.515 141.467C373.414 177.786 358.096 221.007 323.983 238.946V238.946Z" fill="url(#paint7_linear_5_2)"/>
<path d="M299.517 197.64C294.409 179.633 310.014 162.535 328.412 165.981V165.981C347.83 169.617 355.71 193.163 342.392 207.755V207.755C329.074 222.348 304.909 216.647 299.517 197.64V197.64Z" fill="url(#paint8_linear_5_2)" fill-opacity="0.4"/>
<defs>
<linearGradient id="paint0_linear_5_2" x1="256.5" y1="25" x2="567" y2="573" gradientUnits="userSpaceOnUse">
<stop stop-color="#75DADA"/>
<stop offset="1" stop-color="#0B9898"/>
</linearGradient>
<linearGradient id="paint1_linear_5_2" x1="271" y1="48" x2="383" y2="616" gradientUnits="userSpaceOnUse">
<stop stop-color="#FFFFEA"/>
<stop offset="1" stop-color="#B7FBFF"/>
</linearGradient>
<linearGradient id="paint2_linear_5_2" x1="253.301" y1="231.801" x2="298.776" y2="315.547" gradientUnits="userSpaceOnUse">
<stop stop-color="#A259FF"/>
<stop offset="1" stop-color="#FF9559"/>
</linearGradient>
<linearGradient id="paint3_linear_5_2" x1="350.837" y1="186.741" x2="377.659" y2="276.303" gradientUnits="userSpaceOnUse">
<stop stop-color="#F5DF1B"/>
<stop offset="1" stop-color="#1BF5A7"/>
</linearGradient>
<linearGradient id="paint4_linear_5_2" x1="380.819" y1="231.528" x2="419.611" y2="331.474" gradientUnits="userSpaceOnUse">
<stop stop-color="#ED2CA0"/>
<stop offset="1" stop-color="#BB2CED"/>
</linearGradient>
<linearGradient id="paint5_linear_5_2" x1="407.896" y1="317.115" x2="428.861" y2="464.331" gradientUnits="userSpaceOnUse">
<stop stop-color="#5F6DEF"/>
<stop offset="1" stop-color="#5FEFCC"/>
</linearGradient>
<linearGradient id="paint6_linear_5_2" x1="225.461" y1="287.551" x2="232.943" y2="406.807" gradientUnits="userSpaceOnUse">
<stop stop-color="#67FBCF"/>
<stop offset="0.552083" stop-color="#1ABCFE"/>
<stop offset="1" stop-color="#00FFD1"/>
</linearGradient>
<linearGradient id="paint7_linear_5_2" x1="287.924" y1="265.741" x2="330.351" y2="125.365" gradientUnits="userSpaceOnUse">
<stop stop-color="#1A7FEF"/>
<stop offset="1" stop-color="#73F6EA"/>
</linearGradient>
<linearGradient id="paint8_linear_5_2" x1="288.412" y1="158.49" x2="360.386" y2="224.177" gradientUnits="userSpaceOnUse">
<stop stop-color="#B5FFED"/>
<stop offset="1" stop-color="#CFD4FF"/>
</linearGradient>
</defs>
</svg>
